<?xml version="1.0" encoding="utf-8"?>
<!-- Generator: Adobe Illustrator 18.0.0, SVG Export Plug-In . SVG Version: 6.00 Build 0)  -->
<!DOCTYPE svg PUBLIC "-//W3C//DTD SVG 1.1//EN" "http://www.w3.org/Graphics/SVG/1.1/DTD/svg11.dtd">
<svg version="1.1" id="Line_19" xmlns="http://www.w3.org/2000/svg" xmlns:xlink="http://www.w3.org/1999/xlink" x="0px" y="0px"
	 viewBox="0 0 22.8 22.7" enable-background="new 0 0 22.8 22.7" xml:space="preserve">
<g id="XMLID_1_">
	<g>
		<path fill="#FFFFFF" d="M14.2,9.5c0.3,0.3,0.8,0.3,1.1,0c0.3-0.3,0.3-0.8,0-1.1C15,8,14.5,8,14.2,8.3C13.8,8.6,13.8,9.1,14.2,9.5z
			 M14.2,15.2c0.3,0.3,0.8,0.3,1.1,0c0.3-0.3,0.3-0.8,0-1.1c-0.3-0.3-0.8-0.3-1.1,0C13.8,14.4,13.8,14.9,14.2,15.2z M12.7,15.8
			c0-0.4-0.4-0.8-0.8-0.8c-0.5,0-0.8,0.4-0.8,0.8c0,0.5,0.4,0.8,0.8,0.8C12.3,16.6,12.7,16.3,12.7,15.8z M11.9,8.5
			c0.4,0,0.8-0.4,0.8-0.8c0-0.4-0.4-0.8-0.8-0.8c-0.5,0-0.8,0.4-0.8,0.8C11,8.1,11.4,8.5,11.9,8.5z M16.7,11.8
			c0-0.4-0.4-0.8-0.8-0.8c-0.5,0-0.8,0.4-0.8,0.8c0,0.5,0.4,0.8,0.8,0.8C16.4,12.6,16.7,12.2,16.7,11.8z M11.8,9.3
			c-1.4,0-2.5,1.1-2.5,2.5c0,1.4,1.1,2.5,2.5,2.5c1.4,0,2.5-1.1,2.5-2.5C14.3,10.4,13.2,9.3,11.8,9.3z M8.6,11.8
			c0-0.4-0.4-0.8-0.8-0.8C7.3,11,7,11.3,7,11.8c0,0.5,0.4,0.8,0.8,0.8C8.2,12.6,8.6,12.2,8.6,11.8z M6.3,11.8c0-3,2.5-5.5,5.5-5.5
			c3,0,5.5,2.5,5.5,5.5c0,3-2.5,5.5-5.5,5.5C8.8,17.3,6.3,14.9,6.3,11.8z M9.5,8.3C9.2,8,8.7,8,8.4,8.3c-0.3,0.3-0.3,0.8,0,1.1
			c0.3,0.3,0.8,0.3,1.1,0C9.9,9.1,9.9,8.6,9.5,8.3z M9.5,14.1c-0.3-0.3-0.8-0.3-1.1,0c-0.3,0.3-0.3,0.8,0,1.1c0.3,0.3,0.8,0.3,1.1,0
			C9.9,14.9,9.9,14.4,9.5,14.1z"/>
	</g>
	<g>
		<path fill="none" stroke="#FFFFFF" stroke-width="3" stroke-linecap="round" stroke-miterlimit="10" d="M15.8,3.3
			c3.2,1.5,5.4,4.8,5.4,8.5c0,5.2-4.2,9.4-9.4,9.4c-3.8,0-7-2.2-8.5-5.4"/>
		<path fill="none" stroke="#FFFFFF" stroke-width="5" stroke-linecap="round" stroke-miterlimit="10" d="M2.5,10.6
			c0.5-4.2,3.8-7.5,8-8.1"/>
	</g>
</g>
</svg>
