<?xml version="1.0" encoding="utf-8"?>
<!-- Generator: Adobe Illustrator 18.0.0, SVG Export Plug-In . SVG Version: 6.00 Build 0)  -->
<!DOCTYPE svg PUBLIC "-//W3C//DTD SVG 1.1//EN" "http://www.w3.org/Graphics/SVG/1.1/DTD/svg11.dtd">
<svg version="1.1" id="Line_3" xmlns="http://www.w3.org/2000/svg" xmlns:xlink="http://www.w3.org/1999/xlink" x="0px" y="0px"
	 viewBox="0 0 33 31" enable-background="new 0 0 33 31" xml:space="preserve">
<g id="_x33__19_">
	<g>
		<path fill="#FFFFFF" d="M28.5,4.5h-6v-2c0-1.1-0.9-2-2-2h-8c-1.1,0-2,0.9-2,2v2h-6c-2.2,0-4,1.8-4,4v18c0,2.2,1.8,4,4,4h24
			c2.2,0,4-1.8,4-4v-18C32.5,6.3,30.7,4.5,28.5,4.5z M12.5,3.5c0-0.6,0.4-1,1-1h6c0.6,0,1,0.4,1,1v1h-8V3.5z M30.5,26.5
			c0,1.1-0.9,2-2,2h-24c-1.1,0-2-0.9-2-2v-11h10.1c-0.1,0.3-0.1,0.7-0.1,1c0,2.2,1.8,4,4,4s4-1.8,4-4c0-0.3-0.1-0.7-0.1-1h10.1V26.5
			z M14.5,16.5c0-0.4,0.1-0.7,0.3-1h3.4c0.2,0.3,0.3,0.6,0.3,1c0,1.1-0.9,2-2,2C15.4,18.5,14.5,17.6,14.5,16.5z M30.5,13.5h-28v-5
			c0-1.1,0.9-2,2-2h24c1.1,0,2,0.9,2,2V13.5z"/>
	</g>
	<g>
		<path fill="none" stroke="#FFFFFF" stroke-miterlimit="10" d="M28.5,4.5h-6v-2c0-1.1-0.9-2-2-2h-8c-1.1,0-2,0.9-2,2v2h-6
			c-2.2,0-4,1.8-4,4v18c0,2.2,1.8,4,4,4h24c2.2,0,4-1.8,4-4v-18C32.5,6.3,30.7,4.5,28.5,4.5z M12.5,3.5c0-0.6,0.4-1,1-1h6
			c0.6,0,1,0.4,1,1v1h-8V3.5z M30.5,26.5c0,1.1-0.9,2-2,2h-24c-1.1,0-2-0.9-2-2v-11h10.1c-0.1,0.3-0.1,0.7-0.1,1c0,2.2,1.8,4,4,4
			s4-1.8,4-4c0-0.3-0.1-0.7-0.1-1h10.1V26.5z M14.5,16.5c0-0.4,0.1-0.7,0.3-1h3.4c0.2,0.3,0.3,0.6,0.3,1c0,1.1-0.9,2-2,2
			C15.4,18.5,14.5,17.6,14.5,16.5z M30.5,13.5h-28v-5c0-1.1,0.9-2,2-2h24c1.1,0,2,0.9,2,2V13.5z"/>
	</g>
</g>
</svg>
