<?xml version="1.0" encoding="utf-8"?>
<!-- Generator: Adobe Illustrator 18.0.0, SVG Export Plug-In . SVG Version: 6.00 Build 0)  -->
<!DOCTYPE svg PUBLIC "-//W3C//DTD SVG 1.1//EN" "http://www.w3.org/Graphics/SVG/1.1/DTD/svg11.dtd">
<svg version="1.1" id="Line_13" xmlns="http://www.w3.org/2000/svg" xmlns:xlink="http://www.w3.org/1999/xlink" x="0px" y="0px"
	 viewBox="0 0 24 26" enable-background="new 0 0 24 26" xml:space="preserve">
<g id="_x35__9_">
	<g>
		<path fill="#FFFFFF" d="M19,16c-1.8,0-3.3,0.9-4.2,2.3l-5.4-3.1C9.8,14.6,10,13.8,10,13c0-0.5-0.1-1-0.2-1.4l5.6-3.2
			c0.9,1,2.2,1.6,3.7,1.6c2.8,0,5-2.2,5-5c0-2.8-2.2-5-5-5c-2.8,0-5,2.2-5,5c0,0.5,0.1,1,0.2,1.4L8.7,9.6C7.8,8.6,6.5,8,5,8
			c-2.8,0-5,2.2-5,5c0,2.8,2.2,5,5,5c1.1,0,2.2-0.4,3-1l0,0l6.1,3.5c0,0.2-0.1,0.4-0.1,0.5c0,2.8,2.2,5,5,5c2.8,0,5-2.2,5-5
			C24,18.2,21.8,16,19,16z M19,2c1.7,0,3,1.3,3,3c0,1.7-1.3,3-3,3c-1.7,0-3-1.3-3-3C16,3.3,17.3,2,19,2z M5,16c-1.7,0-3-1.3-3-3
			c0-1.7,1.3-3,3-3c1.7,0,3,1.3,3,3C8,14.7,6.7,16,5,16z M19,24c-1.7,0-3-1.3-3-3c0-1.7,1.3-3,3-3c1.7,0,3,1.3,3,3
			C22,22.7,20.7,24,19,24z"/>
	</g>
</g>
</svg>
