<?xml version="1.0" encoding="utf-8"?>
<!-- Generator: Adobe Illustrator 18.0.0, SVG Export Plug-In . SVG Version: 6.00 Build 0)  -->
<!DOCTYPE svg PUBLIC "-//W3C//DTD SVG 1.1//EN" "http://www.w3.org/Graphics/SVG/1.1/DTD/svg11.dtd">
<svg version="1.1" id="Foreground" xmlns="http://www.w3.org/2000/svg" xmlns:xlink="http://www.w3.org/1999/xlink" x="0px" y="0px"
	 viewBox="0 0 438.2 184.2" enable-background="new 0 0 438.2 184.2" xml:space="preserve">
<g>
	<g>
		<polygon fill-rule="evenodd" clip-rule="evenodd" fill="#00569D" points="0.5,0 0.5,26.2 62,26.2 0,83.7 0,111.1 101.2,111.1 
			101.2,83.3 40.2,83.3 99.8,27.9 99.8,0 		"/>
		<polygon fill-rule="evenodd" clip-rule="evenodd" fill="#00569D" points="117.4,0 117.4,111.1 205.8,111.1 205.8,85 149.2,85 
			149.2,68.9 205.8,68.9 205.8,45.4 148.3,45.4 148.3,25.7 206.3,25.7 206.3,0 		"/>
		<path fill-rule="evenodd" clip-rule="evenodd" fill="#00569D" d="M319.1,0v27.5h-62.4v17.4h41.9c16.5,0,20.4,9.5,20.5,20.5
			l0.2,27.5c-0.7,11.9-8.5,18.1-19.2,18.7h-74.3V85H293V68h-44.9c-15.3-0.2-23.3-10.8-23.4-23.6V19.6c0-9,7-19.6,19.6-19.6H319.1z"
			/>
		<polygon fill-rule="evenodd" clip-rule="evenodd" fill="#00569D" points="339.6,0 339.6,27.1 372.3,27.1 372.3,111.6 404.6,111.6 
			404.6,27.5 438.2,27.5 438.2,0.4 		"/>
	</g>
	<g>
		<g>
			<path fill="#00569D" d="M165.5,175.9h-8.9l-4.7-23.5h-0.1l-4.7,23.5h-9l-9.2-34.1h8.9l4.8,24.9h0.1l5-24.9h8.4l5,24.9h0.1
				l4.8-24.9h8.9L165.5,175.9z"/>
			<path fill="#00569D" d="M178,141.7h27.2v7.1h-18.3v6h16.7v6.9h-16.7v6.5h18.8v7.6H178V141.7z"/>
			<path fill="#00569D" d="M242.2,175.9h-5.7l-0.5-3.7c-2.3,3.3-6.5,4.4-9.5,4.4c-10.4,0-17-7.9-17-17.8c0-9.9,6.6-17.8,17-17.8
				c7.1,0,14.7,3.7,15.4,12.3H233c-0.3-2.9-3.1-4.7-6.7-4.7c-5.7,0-7.9,5-7.9,10.1c0,5.1,2.2,10.1,7.9,10.1c4.4,0,7.3-2.1,7.8-5.2
				h-6.2v-6.6h14.3V175.9z"/>
			<path fill="#00569D" d="M294.4,175.9h-5.7l-0.5-3.7c-2.3,3.3-6.5,4.4-9.5,4.4c-10.4,0-17-7.9-17-17.8c0-9.9,6.6-17.8,17-17.8
				c7.1,0,14.7,3.7,15.4,12.3h-8.9c-0.3-2.9-3.1-4.7-6.7-4.7c-5.7,0-7.9,5-7.9,10.1c0,5.1,2.2,10.1,7.9,10.1c4.4,0,7.3-2.1,7.8-5.2
				h-6.2v-6.6h14.3V175.9z"/>
			<path fill="#00569D" d="M300.1,151.1h7.9v4.3h0.1c1.2-3.2,4-4.8,7.5-4.8c0.6,0,1.3,0,1.9,0.2v7.4c-1.1-0.3-2-0.5-3.1-0.5
				c-4,0-6.1,2.8-6.1,5.9v12.3h-8.1V151.1z"/>
			<path fill="#00569D" d="M331.1,150.3c7.7,0,13.1,5.7,13.1,13.1c0,7.5-5.4,13.1-13.1,13.1c-7.7,0-13-5.6-13-13.1
				C318.1,156,323.4,150.3,331.1,150.3z M331.1,170.4c3.8,0,5-3.7,5-6.9c0-3.2-1.1-6.9-5-6.9c-3.8,0-4.9,3.8-4.9,6.9
				C326.2,166.7,327.3,170.4,331.1,170.4z"/>
			<path fill="#00569D" d="M373.1,175.9h-7.9v-3.4h-0.1c-1.5,2.5-4.7,4.1-7.6,4.1c-7.1,0-9.2-4.1-9.2-10.6v-14.9h8.1v14.4
				c0,3.3,1.4,4.4,4,4.4c1.7,0,4.4-1.1,4.4-5.5v-13.3h8.1V175.9z"/>
			<path fill="#00569D" d="M378.6,151.1h7.7v2.9h0.1c1.6-2.4,3.9-3.6,6.8-3.6c7.8,0,11.1,6.6,11.1,13.7c0,6.5-3.4,12.6-10.5,12.6
				c-3,0-5.4-1.1-7.1-3.4h-0.1v11h-8.1V151.1z M386.4,163.2c0,4.3,1.2,7.2,4.9,7.2c3.6,0,4.9-3.8,4.9-7.2c0-3.2-1.2-6.6-4.8-6.6
				C389.2,156.5,386.4,158,386.4,163.2z"/>
		</g>
	</g>
</g>
</svg>
